name Run_200 02_newCOP3_v24.mot
datacolumns 19
datarows 95
range 1.64 1.687
DataType=double
version=3
OpenSimVersion=4.3-2021-08-27-4bc7ad9
endheader
time	R_ground_force_vx	R_ground_force_vy	R_ground_force_vz	R_ground_force_px	R_ground_force_py	R_ground_force_pz	L_ground_force_vx	L_ground_force_vy	L_ground_force_vz	L_ground_force_px	L_ground_force_py	L_ground_force_pz	R_ground_torque_x	R_ground_torque_y	R_ground_torque_z	L_ground_torque_x	L_ground_torque_y	L_ground_torque_z
1.64	5.082973	357.426086	-15.385906	1.285241	0	-0.282139	0	0	0	0	0	0	-0	5.140157	-0	0	0	0
1.6405	5.642006	367.566345	-15.561612	1.285051	0	-0.282234	0	0	0	0	0	0	-0	5.219788	-0	0	0	0
1.641	6.159852	377.802856	-15.730849	1.284868	0	-0.282329	0	0	0	0	0	0	-0	5.297553	-0	0	0	0
1.6415	6.632487	388.13028	-15.893403	1.284691	0	-0.282423	0	0	0	0	0	0	-0	5.373387	-0	0	0	0
1.642	7.055978	398.543274	-16.049068	1.284521	0	-0.282516	0	0	0	0	0	0	-0	5.44723	-0	0	0	0
1.6425	7.426501	409.036285	-16.197649	1.28436	0	-0.282608	0	0	0	0	0	0	-0	5.519019	-0	0	0	0
1.643	7.740357	419.60376	-16.338953	1.284207	0	-0.2827	0	0	0	0	0	0	-0	5.588696	-0	0	0	0
1.6435	7.99399	430.240051	-16.472797	1.284063	0	-0.282791	0	0	0	0	0	0	-0	5.656201	-0	0	0	0
1.644	8.184003000000001	440.939392	-16.59901	1.283927	0	-0.282882	0	0	0	0	0	0	-0	5.721478	-0	0	0	0
1.6445	8.307167	451.695984	-16.717422	1.283801	0	-0.282972	0	0	0	0	0	0	-0	5.784473	-0	0	0	0
1.645	8.360443999999999	462.503998	-16.827877	1.283684	0	-0.283063	0	0	0	0	0	0	-0	5.845131	-0	0	0	0
1.6455	8.34099	473.357513	-16.930222	1.283577	0	-0.283153	0	0	0	0	0	0	-0	5.903401	-0	0	0	0
1.646	8.246172	484.250519	-17.024313	1.283481	0	-0.283243	0	0	0	0	0	0	-0	5.959233	-0	0	0	0
1.6465	8.073577	495.177002	-17.11002	1.283394	0	-0.283332	0	0	0	0	0	0	-0	6.012578	-0	0	0	0
1.647	7.821022	506.13092	-17.187208	1.283317	0	-0.283422	0	0	0	0	0	0	-0	6.06339	-0	0	0	0
1.6475	7.486559	517.1062010000001	-17.255764	1.283251	0	-0.283512	0	0	0	0	0	0	-0	6.111624	-0	0	0	0
1.648	7.068486	528.09668	-17.315571	1.283195	0	-0.283602	0	0	0	0	0	0	-0	6.157239	-0	0	0	0
1.6485	6.565348	539.096191	-17.366526	1.28315	0	-0.283692	0	0	0	0	0	0	-0	6.200193	-0	0	0	0
1.649	5.975945	550.098572	-17.408531	1.283115	0	-0.283783	0	0	0	0	0	0	-0	6.240448	-0	0	0	0
1.6495	5.299333	561.097717	-17.441496	1.28309	0	-0.283874	0	0	0	0	0	0	-0	6.277967	-0	0	0	0
1.65	4.534826	572.087341	-17.465336	1.283075	0	-0.283964	0	0	0	0	0	0	-0	6.312717	-0	0	0	0
1.6505	3.681995	583.061279	-17.479979	1.28307	0	-0.284056	0	0	0	0	0	0	-0	6.344665	-0	0	0	0
1.651	2.74067	594.013428	-17.485355	1.283075	0	-0.284148	0	0	0	0	0	0	-0	6.373781	-0	0	0	0
1.6515	1.710935	604.937561	-17.481405	1.28309	0	-0.28424	0	0	0	0	0	0	-0	6.400038	-0	0	0	0
1.652	0.593125	615.827637	-17.468073	1.283114	0	-0.284332	0	0	0	0	0	0	-0	6.423409	-0	0	0	0
1.6525	-0.6121760000000001	626.67749	-17.445314	1.283147	0	-0.284426	0	0	0	0	0	0	-0	6.443874	-0	0	0	0
1.653	-1.904143	637.48114	-17.413092	1.283189	0	-0.284519	0	0	0	0	0	0	-0	6.461409	-0	0	0	0
1.6535	-3.281717	648.232544	-17.371374	1.283239	0	-0.284614	0	0	0	0	0	0	-0	6.475997	-0	0	0	0
1.654	-4.743613	658.9259029999999	-17.320139	1.283297	0	-0.284709	0	0	0	0	0	0	-0	6.487623	-0	0	0	0
1.6545	-6.288325	669.555298	-17.259371	1.283363	0	-0.284804	0	0	0	0	0	0	-0	6.496271	-0	0	0	0
1.655	-7.91414	680.115112	-17.189066	1.283436	0	-0.284901	0	0	0	0	0	0	-0	6.501931	-0	0	0	0
1.6555	-9.619147	690.5996699999999	-17.109228	1.283515	0	-0.284998	0	0	0	0	0	0	-0	6.504594	-0	0	0	0
1.656	-11.401249	701.00354	-17.019865	1.283601	0	-0.285096	0	0	0	0	0	0	-0	6.504253	-0	0	0	0
1.6565	-13.25817	711.3213500000001	-16.921003	1.283692	0	-0.285194	0	0	0	0	0	0	-0	6.500906	-0	0	0	0
1.657	-15.187475	721.548035	-16.81267	1.283789	0	-0.285294	0	0	0	0	0	0	-0	6.494548	-0	0	0	0
1.6575	-17.186579	731.678528	-16.694906	1.28389	0	-0.285394	0	0	0	0	0	0	-0	6.485182	-0	0	0	0
1.658	-19.252756	741.7080079999999	-16.567764	1.283996	0	-0.285496	0	0	0	0	0	0	-0	6.472811	-0	0	0	0
1.6585	-21.383163	751.6319580000001	-16.431305	1.284104	0	-0.285598	0	0	0	0	0	0	-0	6.45744	-0	0	0	0
1.659	-23.574844	761.446045	-16.285604	1.284216	0	-0.285701	0	0	0	0	0	0	-0	6.439077	-0	0	0	0
1.6595	-25.824751	771.146118	-16.130747	1.28433	0	-0.285805	0	0	0	0	0	0	-0	6.417733	-0	0	0	0
1.66	-28.129755	780.7282709999999	-15.966828	1.284446	0	-0.28591	0	0	0	0	0	0	-0	6.39342	-0	0	0	0
1.6605	-30.486656	790.189087	-15.793961	1.284563	0	-0.286016	0	0	0	0	0	0	-0	6.366154	-0	0	0	0
1.661	-32.892208	799.525208	-15.612265	1.284681	0	-0.286123	0	0	0	0	0	0	-0	6.335951	-0	0	0	0
1.6615	-35.343128	808.7337649999999	-15.421878	1.284799	0	-0.286231	0	0	0	0	0	0	-0	6.302832	-0	0	0	0
1.662	-37.836098	817.8120730000001	-15.222951	1.284916	0	-0.28634	0	0	0	0	0	0	-0	6.266819	-0	0	0	0
1.6625	-40.367802	826.757874	-15.015647	1.285032	0	-0.28645	0	0	0	0	0	0	-0	6.227936	-0	0	0	0
1.663	-42.934917	835.5692749999999	-14.800145	1.285146	0	-0.286561	0	0	0	0	0	0	-0	6.186209	-0	0	0	0
1.6635	-45.534138	844.24469	-14.576638	1.285259	0	-0.286673	0	0	0	0	0	0	-0	6.141666	-0	0	0	0
1.664	-48.162186	852.782959	-14.345336	1.285368	0	-0.286786	0	0	0	0	0	0	-0	6.09434	-0	0	0	0
1.6645	-50.815819	861.183411	-14.106461	1.285474	0	-0.2869	0	0	0	0	0	0	-0	6.044263	-0	0	0	0
1.665	-53.491848	869.445496	-13.860251	1.285576	0	-0.287015	0	0	0	0	0	0	-0	5.991469	-0	0	0	0
1.6655	-56.187138	877.569397	-13.606961	1.285674	0	-0.28713	0	0	0	0	0	0	-0	5.935996	-0	0	0	0
1.666	-58.898624	885.555481	-13.346862	1.285767	0	-0.287247	0	0	0	0	0	0	-0	5.877882	-0	0	0	0
1.6665	-61.623318	893.404663	-13.080236	1.285855	0	-0.287364	0	0	0	0	0	0	-0	5.81717	-0	0	0	0
1.667	-64.358315	901.118103	-12.807384	1.285937	0	-0.287482	0	0	0	0	0	0	-0	5.7539	-0	0	0	0
1.6675	-67.10080000000001	908.69751	-12.528619	1.286013	0	-0.287601	0	0	0	0	0	0	-0	5.688118	-0	0	0	0
1.668	-69.84805299999999	916.14502	-12.244271	1.286083	0	-0.28772	0	0	0	0	0	0	-0	5.619871	-0	0	0	0
1.6685	-72.59744999999999	923.463074	-11.954682	1.286146	0	-0.28784	0	0	0	0	0	0	-0	5.549205	-0	0	0	0
1.669	-75.34648900000001	930.65448	-11.660209	1.286201	0	-0.287961	0	0	0	0	0	0	-0	5.476172	-0	0	0	0
1.6695	-78.09275100000001	937.722534	-11.361218	1.286249	0	-0.288082	0	0	0	0	0	0	-0	5.400821	-0	0	0	0
1.67	-80.833923	944.670898	-11.058093	1.286289	0	-0.288204	0	0	0	0	0	0	-0	5.323207	-0	0	0	0
1.6705	-83.567825	951.503479	-10.751225	1.286322	0	-0.288325	0	0	0	0	0	0	-0	5.243382	-0	0	0	0
1.671	-86.292351	958.224548	-10.441014	1.286345	0	-0.288448	0	0	0	0	0	0	-0	5.161404	-0	0	0	0
1.6715	-89.005516	964.838806	-10.127874	1.286361	0	-0.28857	0	0	0	0	0	0	-0	5.077328	-0	0	0	0
1.672	-91.705437	971.351074	-9.812224000000001	1.286368	0	-0.288692	0	0	0	0	0	0	-0	4.991212	-0	0	0	0
1.6725	-94.39031199999999	977.766602	-9.494490000000001	1.286366	0	-0.288815	0	0	0	0	0	0	-0	4.903117	-0	0	0	0
1.673	-97.058449	984.09082	-9.175103	1.286355	0	-0.288937	0	0	0	0	0	0	-0	4.813103	-0	0	0	0
1.6735	-99.70822099999999	990.329285	-8.854501000000001	1.286335	0	-0.28906	0	0	0	0	0	0	-0	4.721231	-0	0	0	0
1.674	-102.338097	996.487915	-8.533121	1.286306	0	-0.289182	0	0	0	0	0	0	-0	4.627564	-0	0	0	0
1.6745	-104.946602	1002.572632	-8.211404	1.286267	0	-0.289304	0	0	0	0	0	0	-0	4.532166	-0	0	0	0
1.675	-107.532333	1008.589661	-7.88979	1.28622	0	-0.289426	0	0	0	0	0	0	-0	4.435099	-0	0	0	0
1.6755	-110.093941	1014.545166	-7.568715	1.286163	0	-0.289547	0	0	0	0	0	0	-0	4.336431	-0	0	0	0
1.676	-112.630119	1020.445557	-7.248615	1.286098	0	-0.289667	0	0	0	0	0	0	-0	4.236225	-0	0	0	0
1.6765	-115.139587	1026.296997	-6.929918	1.286023	0	-0.289788	0	0	0	0	0	0	-0	4.13455	-0	0	0	0
1.677	-117.621124	1032.106079	-6.613046	1.285939	0	-0.289907	0	0	0	0	0	0	-0	4.03147	-0	0	0	0
1.6775	-120.073494	1037.879028	-6.298411	1.285845	0	-0.290026	0	0	0	0	0	0	-0	3.927055	-0	0	0	0
1.678	-122.495483	1043.622192	-5.986417	1.285743	0	-0.290144	0	0	0	0	0	0	-0	3.821372	-0	0	0	0
1.6785	-124.885887	1049.341675	-5.677454	1.285632	0	-0.290262	0	0	0	0	0	0	-0	3.714488	-0	0	0	0
1.679	-127.243492	1055.043701	-5.371897	1.285512	0	-0.290378	0	0	0	0	0	0	-0	3.606473	-0	0	0	0
1.6795	-129.567062	1060.734253	-5.070109	1.285383	0	-0.290494	0	0	0	0	0	0	-0	3.497395	-0	0	0	0
1.68	-131.855377	1066.419067	-4.772433	1.285246	0	-0.290608	0	0	0	0	0	0	-0	3.387322	-0	0	0	0
1.6805	-134.107147	1072.103882	-4.479195	1.2851	0	-0.290722	0	0	0	0	0	0	-0	3.276324	-0	0	0	0
1.681	-136.321106	1077.794067	-4.190701	1.284945	0	-0.290835	0	0	0	0	0	0	-0	3.164469	-0	0	0	0
1.6815	-138.495926	1083.494873	-3.907236	1.284782	0	-0.290946	0	0	0	0	0	0	-0	3.051826	-0	0	0	0
1.682	-140.630249	1089.211304	-3.629062	1.284611	0	-0.291057	0	0	0	0	0	0	-0	2.938463	-0	0	0	0
1.6825	-142.722717	1094.947876	-3.356416	1.284431	0	-0.291166	0	0	0	0	0	0	-0	2.82445	-0	0	0	0
1.683	-144.771942	1100.709229	-3.089514	1.284243	0	-0.291274	0	0	0	0	0	0	-0	2.709854	-0	0	0	0
1.6835	-146.776489	1106.49939	-2.828544	1.284046	0	-0.291381	0	0	0	0	0	0	-0	2.594743	-0	0	0	0
1.684	-148.734924	1112.322266	-2.573668	1.283841	0	-0.291487	0	0	0	0	0	0	-0	2.479184	-0	0	0	0
1.6845	-150.645798	1118.181396	-2.325023	1.283629	0	-0.291592	0	0	0	0	0	0	-0	2.363245	-0	0	0	0
1.685	-152.50766	1124.079956	-2.082717	1.283408	0	-0.291695	0	0	0	0	0	0	-0	2.246993	-0	0	0	0
1.6855	-154.319077	1130.020752	-1.846832	1.283178	0	-0.291797	0	0	0	0	0	0	-0	2.130493	-0	0	0	0
1.686	-156.078613	1136.006592	-1.617422	1.282941	0	-0.291898	0	0	0	0	0	0	-0	2.013811	-0	0	0	0
1.6865	-157.784882	1142.039551	-1.394514	1.282695	0	-0.291998	0	0	0	0	0	0	-0	1.897012	-0	0	0	0
1.687	-159.436523	1148.121704	-1.178108	1.282441	0	-0.292096	0	0	0	0	0	0	-0	1.78016	-0	0	0	0
